<?xml version="1.0" encoding="utf-8"?>
<!-- Generator: Adobe Illustrator 24.3.0, SVG Export Plug-In . SVG Version: 6.00 Build 0)  -->
<svg version="1.1" id="Layer_1" xmlns="http://www.w3.org/2000/svg" xmlns:xlink="http://www.w3.org/1999/xlink" x="0px" y="0px"
	 viewBox="0 0 100 100" style="enable-background:new 0 0 100 100;" xml:space="preserve">
<style type="text/css">
	.st0{fill:#FFFFFF;}
	.st1{fill:#EA4335;}
	.st2{fill:#FBBC04;}
	.st3{fill:#34A853;}
	.st4{fill:#188038;}
	.st5{fill:#1967D2;}
	.st6{fill:#4285F4;}
</style>
<g>
	<rect x="35.5" y="35.5" class="st0" width="28.9" height="28.9"/>
	<polygon class="st1" points="64.5,77.5 77.5,64.5 64.5,64.5 	"/>
	<rect x="64.5" y="35.5" class="st2" width="13" height="28.9"/>
	<rect x="35.5" y="64.5" class="st3" width="28.9" height="13"/>
	<path class="st4" d="M22.5,64.5v8.7c0,2.4,1.9,4.3,4.3,4.3h8.7v-13H22.5z"/>
	<path class="st5" d="M77.5,35.5v-8.7c0-2.4-1.9-4.3-4.3-4.3h-8.7v13H77.5z"/>
	<path class="st6" d="M64.5,22.5H26.8c-2.4,0-4.3,1.9-4.3,4.3v37.6h13V35.5h28.9L64.5,22.5L64.5,22.5z"/>
	<path class="st6" d="M41.5,58c-1.1-0.7-1.8-1.8-2.3-3.2l2.5-1c0.2,0.9,0.6,1.5,1.2,2c0.6,0.5,1.3,0.7,2,0.7c0.8,0,1.5-0.2,2.1-0.8
		c0.6-0.5,0.9-1.2,0.9-1.9c0-0.8-0.3-1.4-0.9-1.9c-0.6-0.5-1.4-0.8-2.4-0.8h-1.4v-2.5h1.3c0.8,0,1.5-0.2,2-0.7
		c0.6-0.4,0.8-1,0.8-1.8c0-0.7-0.2-1.2-0.7-1.6c-0.5-0.4-1.1-0.6-1.9-0.6c-0.7,0-1.3,0.2-1.8,0.6c-0.4,0.4-0.8,0.9-0.9,1.4l-2.5-1
		c0.3-0.9,0.9-1.8,1.8-2.5c0.9-0.7,2-1.1,3.4-1.1c1,0,1.9,0.2,2.8,0.6c0.8,0.4,1.4,0.9,1.9,1.6c0.4,0.7,0.7,1.5,0.7,2.4
		s-0.2,1.6-0.7,2.3s-0.9,1.1-1.6,1.4v0.2c0.8,0.3,1.5,0.9,2,1.6s0.8,1.5,0.8,2.5s-0.2,1.9-0.8,2.6c-0.5,0.8-1.2,1.4-2.1,1.8
		c-0.9,0.4-1.9,0.7-3,0.7C43.7,59.1,42.5,58.7,41.5,58z M56.9,45.5l-2.8,2l-1.4-2.1l5-3.6h1.9v16.8h-2.7V45.5L56.9,45.5z"/>
</g>
</svg>
