<?xml version="1.0" encoding="utf-8"?>
<!-- Generator: Adobe Illustrator 24.3.0, SVG Export Plug-In . SVG Version: 6.00 Build 0)  -->
<svg version="1.1" id="Layer_1" xmlns="http://www.w3.org/2000/svg" xmlns:xlink="http://www.w3.org/1999/xlink" x="0px" y="0px"
	 viewBox="0 0 100 100" style="enable-background:new 0 0 100 100;" xml:space="preserve">
<style type="text/css">
	.st0{fill:#6B9C41;}
	.st1{fill:#4E7738;}
</style>
<g>
	<path class="st0" d="M53.8,23.3"/>
	<path class="st0" d="M53.4,23.1"/>
	<path class="st1" d="M68.4,73.6c0,0.4-0.1,0.7-0.4,0.9c-0.4,0.4-0.9,0.7-1.4,0.9c-1.3,0.6-2.8,0.9-4.1,1.2
		c-3.1,0.6-6.2,0.7-9.3,0.8c-3.2,0.1-6.4,0.1-9.7-0.2c-2.6-0.2-5.2-0.4-7.8-1c-1-0.3-2-0.6-2.9-1c-0.2-0.1-0.3-0.2-0.4-0.3
		c-0.6-0.4-0.8-0.8-0.8-1.5c0.1-1.5,0.3-3.1,0.7-4.6c0.1-0.1,0.1-0.2,0.1-0.3l0,0l0,0c0.1,0,0.2,0.1,0.3,0.1
		c1.3,0.6,2.7,0.9,4.1,1.1c1.2,0.2,2.4,0.2,3.6,0.3l0,0c0.2,0,0.4,0,0.5,0s0.2,0,0.3,0c0.5,0,1,0,1.5,0c0.1,0,0.2,0,0.3,0
		c0.8,0,1.5-0.1,2.3-0.3c1.3-0.3,2.4-0.8,3.3-1.9c0.6-0.8,0.9-1.6,1.2-2.5c0-0.1,0-0.2,0.1-0.3c0.8-3.8,1.5-7.6,2.2-11.5
		c0-0.1,0-0.2,0.1-0.3c0.2-1.2-0.2-2.1-1.1-2.9c-0.7-0.6-1.5-0.8-2.3-1.1l0,0c-1.1-0.3-2.4-0.5-3.6-0.7l0,0l0,0c0-0.7,0-1.3,0.1-2
		h8.2c0.2,0,0.3-0.1,0.3-0.2c0.1-0.3,0.2-0.7,0.3-1c0.2-0.7,0.3-1.3,0.3-2c0-0.1,0-0.1,0-0.2c0-0.2,0-0.4-0.1-0.5l-0.1-0.1
		c-0.1-0.1-0.1-0.2-0.2-0.2l0,0c-0.9-1.1-1.8-2.1-2.7-3.2c-0.1-0.1-0.1-0.1-0.2-0.2c-0.1-0.1-0.2-0.2-0.2-0.2c0-0.1,0.1-0.1,0.3-0.2
		c0.3-0.1,0.6-0.3,0.9-0.5l0,0l0,0c0.3-0.2,0.5-0.3,0.8-0.5l0,0c0.7-0.5,1.3-1,1.9-1.6c0.3-0.3,0.5-0.6,0.8-1
		c0.8-1.1,1.2-2.4,1.4-3.7l0,0c0.1-0.6,0.1-1.2,0-1.9c-0.4-2.3-1.4-4.2-3.1-5.7c-0.1-0.1-0.2-0.2-0.2-0.3c0.4,0.2,0.8,0.4,1.2,0.6
		s0.7,0.5,1,0.8c4.2,3.7,4,10.2-0.4,13.6c-0.3,0.2-0.3,0.2,0,0.4c2,1.3,3.9,2.6,5.9,3.9c0.2,0.1,0.3,0.3,0.3,0.5
		c-0.1,1.2-0.4,2.2-0.9,3.2c-0.1,0.2-0.2,0.2-0.4,0.2h-5.1c-0.2,0-0.3,0.1-0.3,0.3c0,1.3,0,2.5,0.2,3.7c0.4,2.6,1.6,4.8,3.2,6.9
		c1.3,1.7,2.9,3.2,4.6,4.5c2.9,2.2,4.5,5.2,5.2,8.8C68.3,71.6,68.4,72.6,68.4,73.6z"/>
	<path class="st0" d="M56.9,31.1L56.9,31.1c-0.1,1.3-0.6,2.6-1.4,3.7c-0.2,0.3-0.5,0.7-0.8,1c-0.6,0.6-1.2,1.2-1.9,1.6l0,0
		c-0.3,0.2-0.5,0.3-0.8,0.5l0,0l0,0c-0.3,0.2-0.6,0.3-0.9,0.5c-0.2,0.1-0.3,0.1-0.3,0.2c0,0.1,0.1,0.1,0.2,0.2
		c0.1,0.1,0.1,0.1,0.2,0.2c0.9,1.1,1.8,2.1,2.7,3.2l0,0c0.1,0.1,0.1,0.2,0.2,0.2l0.1,0.1c0.1,0.2,0.2,0.3,0.1,0.5c0,0.1,0,0.1,0,0.2
		c0,0.7-0.2,1.3-0.3,2c-0.1,0.3-0.2,0.7-0.3,1c-0.1,0.2-0.2,0.2-0.3,0.2H39.8c-0.3,0-0.4-0.1-0.5-0.3c-0.5-1-0.8-2-0.8-3.1
		c0-0.3,0.1-0.4,0.3-0.6c2-1.3,3.9-2.6,5.9-3.9c0.2-0.1,0.2-0.2,0-0.4c-2.8-2.3-4-5.3-3.2-8.9c0.9-3.5,3.2-5.7,6.8-6.6
		c1.7-0.4,3.3-0.2,4.9,0.3c0.1,0,0.2,0.1,0.3,0.2s0.1,0.2,0.2,0.3c1.7,1.5,2.6,3.4,3.1,5.7C57,29.9,57,30.5,56.9,31.1z"/>
	<path class="st0" d="M52.1,53.2c0,0.1,0,0.2-0.1,0.3c-0.7,3.9-1.5,7.7-2.2,11.5c0,0.1,0,0.2-0.1,0.3c-0.2,0.9-0.6,1.8-1.2,2.5
		c-0.9,1-2,1.6-3.3,1.9c-0.8,0.1-1.5,0.2-2.3,0.3c-0.1,0-0.2,0-0.3,0c-0.5,0-1,0-1.5,0c-0.1,0-0.2,0-0.3,0c-0.2,0-0.4,0-0.5,0l0,0
		c-1.2,0-2.4-0.1-3.6-0.3c-1.4-0.2-2.8-0.6-4.1-1.1c-0.1-0.1-0.2-0.1-0.3-0.1l0,0c0.1-0.6,0.3-1,0.6-1.5c0.9-2,2.2-3.7,4-5
		c1.7-1.2,3.1-2.6,4.4-4.2c2.3-2.6,3.7-5.7,3.7-9.3l0,0c1.2,0.2,2.4,0.4,3.6,0.7l0,0c0.8,0.3,1.6,0.6,2.3,1.1
		C52,51,52.4,52,52.1,53.2z"/>
</g>
</svg>
