<?xml version="1.0" encoding="utf-8"?>
<!-- Generator: Adobe Illustrator 24.3.0, SVG Export Plug-In . SVG Version: 6.00 Build 0)  -->
<svg version="1.1" id="Layer_1" xmlns="http://www.w3.org/2000/svg" xmlns:xlink="http://www.w3.org/1999/xlink" x="0px" y="0px"
	 viewBox="0 0 100 100" style="enable-background:new 0 0 100 100;" xml:space="preserve">
<style type="text/css">
	.st0{fill:#FFFFFF;}
</style>
<g>
	<circle cx="49.5" cy="50" r="27.5"/>
	<path class="st0" d="M61.2,46.3L61.2,46.3C61.2,46.2,61.2,46.2,61.2,46.3v-0.2V46v0c0,0,0-0.1-0.1-0.1c0,0,0-0.1-0.1-0.1
		c0,0,0-0.1-0.1-0.1c0,0,0-0.1-0.1-0.1l-0.1-0.1c0,0,0,0-0.1-0.1l-0.1-0.1c0,0-0.1,0-0.1-0.1l0,0L50,38.5c-0.3-0.2-0.8-0.2-1.1,0
		l-10.7,7.1l0,0c0,0-0.1,0-0.1,0.1L38,45.8c0,0,0,0.1-0.1,0.1L37.8,46c0,0-0.1,0-0.1,0.1l0.3-0.2c0,0,0,0.1-0.1,0.1
		c0,0,0,0.1-0.1,0.1v0.1v0.1v0.1c0,0.1,0,0.1,0,0.1v0.1c0,0.1,0,0.1,0,0.1v7.1c0,0.1,0,0.1,0,0.1V54c0,0.1,0,0.1,0,0.1v0.1V54l0,0
		c0,0,0,0.1,0.1,0.1c0,0,0,0.1,0.1,0.1l0.1,0.1c0,0,0,0.1,0.1,0.1l0.1,0.1l0.1,0.1l0.1,0.1c0,0,0,0,0.1,0.1l0,0l10.7,7
		c0.2,0.1,0.4,0.2,0.5,0.2s0.4-0.1,0.5-0.2L61,54.7l0,0c0,0,0.1,0,0.1-0.1l0.1-0.1c0,0,0-0.1,0.1-0.1l0.1-0.1c0,0,0,0,0.1-0.1
		l0.1-0.1c0,0,0-0.1,0.1-0.1c0,0,0-0.1,0.1-0.1v-0.1v-0.1v-0.1c0-0.1,0-0.1,0-0.1v-0.1c0-0.1,0-0.1,0-0.1v-7.1
		C61.2,46.4,61.2,46.4,61.2,46.3z M50.5,41.2l7.9,5.2l-3.5,2.4l-4.3-2.9C50.5,45.9,50.5,41.2,50.5,41.2z M48.5,41.2v4.7l-4.3,2.9
		l-3.5-2.4L48.5,41.2z M39.8,48.3l2.5,1.7l-2.5,1.7V48.3z M48.5,58.8l-7.9-5.2l3.5-2.4l4.3,2.9C48.5,54.1,48.5,58.8,48.5,58.8z
		 M49.5,52.4L46,50l3.5-2.4L53,50L49.5,52.4z M50.5,58.8v-4.7l4.3-2.9l3.5,2.4L50.5,58.8z M59.2,51.7L56.7,50l2.5-1.7V51.7z"/>
</g>
</svg>
