<?xml version="1.0" encoding="utf-8"?>
<!-- Generator: Adobe Illustrator 24.3.0, SVG Export Plug-In . SVG Version: 6.00 Build 0)  -->
<svg version="1.1" id="Capa_1" xmlns="http://www.w3.org/2000/svg" xmlns:xlink="http://www.w3.org/1999/xlink" x="0px" y="0px"
	 viewBox="0 0 100 100" style="enable-background:new 0 0 100 100;" xml:space="preserve">
<style type="text/css">
	.st0{fill:url(#SVGID_1_);}
	.st1{fill:url(#SVGID_2_);}
	.st2{fill:url(#SVGID_3_);}
</style>
<g>
	
		<linearGradient id="SVGID_1_" gradientUnits="userSpaceOnUse" x1="14.3" y1="-931.25" x2="33.055" y2="-931.25" gradientTransform="matrix(1 0 0 -1 0 -873.4)">
		<stop  offset="0" style="stop-color:#F6C43D"/>
		<stop  offset="1" style="stop-color:#FCD975"/>
	</linearGradient>
	<path class="st0" d="M28.8,38.1H18.6c-2.4,0-4.3,2-4.3,4.3v30.9c0,2.4,2,4.3,4.3,4.3h10.2c2.4,0,4.3-2,4.3-4.3V42.4
		C33.1,40,31.1,38.1,28.8,38.1z"/>
	
		<linearGradient id="SVGID_2_" gradientUnits="userSpaceOnUse" x1="40.157" y1="-923.4" x2="58.912" y2="-923.4" gradientTransform="matrix(1 0 0 -1 0 -873.4)">
		<stop  offset="0" style="stop-color:#1480C4"/>
		<stop  offset="1" style="stop-color:#1C99D4"/>
	</linearGradient>
	<path class="st1" d="M54.6,22.5H44.5c-2.4,0-4.3,2-4.3,4.3v46.4c0,2.4,2,4.3,4.3,4.3h10.2c2.4,0,4.3-2,4.3-4.3V26.8
		C58.9,24.5,57,22.5,54.6,22.5z"/>
	
		<linearGradient id="SVGID_3_" gradientUnits="userSpaceOnUse" x1="65.9638" y1="-934.15" x2="84.7188" y2="-934.15" gradientTransform="matrix(1 0 0 -1 0 -873.4)">
		<stop  offset="0" style="stop-color:#B11E26"/>
		<stop  offset="1" style="stop-color:#C21C24"/>
	</linearGradient>
	<path class="st2" d="M80.4,44H70.2c-2.4,0-4.3,2-4.3,4.3v24.9c0,2.4,2,4.3,4.3,4.3h10.2c2.4,0,4.3-2,4.3-4.3V48.3
		C84.7,45.9,82.8,44,80.4,44z"/>
</g>
</svg>
