<?xml version="1.0" encoding="utf-8"?>
<!-- Generator: Adobe Illustrator 24.3.0, SVG Export Plug-In . SVG Version: 6.00 Build 0)  -->
<svg version="1.1" id="Layer_1" xmlns="http://www.w3.org/2000/svg" xmlns:xlink="http://www.w3.org/1999/xlink" x="0px" y="0px"
	 viewBox="0 0 100 100" style="enable-background:new 0 0 100 100;" xml:space="preserve">
<style type="text/css">
	.st0{fill:#FFFFFF;}
	.st1{fill:#5B4538;}
	.st2{fill-rule:evenodd;clip-rule:evenodd;fill:#5B4538;}
	.st3{fill:url(#SVGID_1_);}
	.st4{fill:#C8BCA8;}
	.st5{fill-rule:evenodd;clip-rule:evenodd;fill:url(#SVGID_2_);}
	.st6{fill-rule:evenodd;clip-rule:evenodd;fill:url(#SVGID_3_);}
	.st7{fill:#A99675;}
	.st8{fill-rule:evenodd;clip-rule:evenodd;fill:url(#SVGID_4_);}
	.st9{fill:url(#SVGID_5_);}
	.st10{fill:#B5A584;}
	.st11{fill:#CABB9C;}
	.st12{fill:url(#_x35__1_);}
	.st13{fill:url(#SVGID_6_);}
</style>
<circle class="st0" cx="50" cy="50" r="50"/>
<g>
	<path class="st1" d="M64.3,61.6L64.3,61.6c1.5,0.5,2.7,1.1,3.6,2.1c0.2,0.1,0.3,0.3,0.3,0.5c0,0.3-0.2,0.6-0.7,0.9S66.1,66,65,67
		c-1,0.8-1.9,1.4-2.5,1.8c-0.1,0.1-0.3,0.1-0.3,0.1c-0.2,0-0.3-0.1-0.5-0.2c-0.1-0.1-0.2-0.3-0.2-0.5c0-0.1,0.1-0.3,0.1-0.4
		c0.1-0.3,0.5-0.5,1-0.8c0.3-0.2,0.8-0.5,1.3-0.9c0.6-0.5,1.1-0.9,1.3-1c0.5-0.3,0.8-0.5,0.8-0.5v-0.1c-0.3-0.5-0.8-0.9-1.4-1.1
		c-0.6-0.1-1.2-0.3-1.8-0.5c-0.7-0.2-1.2-0.5-1.6-0.9v-0.1c0-0.1,0.1-0.3,0.3-0.5c0.1-0.2,0.3-0.3,0.5-0.3c0.1,0,0.2,0,0.3,0
		c0.3,0,0.6,0.1,1,0.3C63.7,61.2,64,61.4,64.3,61.6 M35.9,61c0.3,0,0.5,0.1,0.7,0.2c0.2,0.1,0.3,0.3,0.3,0.5c0,0.1-0.1,0.3-0.1,0.4
		c-0.4,0.5-1.2,0.9-2.5,1.4c-1.1,0.5-1.9,1-2.3,1.6c0.7,0.4,1.5,0.9,2.7,1.3c1.7,0.8,2.7,1.2,2.7,1.2c0.2,0.1,0.3,0.3,0.3,0.5
		c0,0.3-0.1,0.5-0.3,0.8c-0.3,0.2-0.5,0.3-0.9,0.3c-0.1,0-0.3,0-0.4-0.1c-0.1-0.1-0.3-0.3-0.6-0.5c-1.6-0.9-3.3-1.7-5.1-2.5
		c-0.2-0.1-0.3-0.1-0.5-0.2s-0.3-0.3-0.4-0.5c0-0.5,0.2-1,0.7-1.5s1.5-0.9,2.7-1.5c1.3-0.5,2.1-1.1,2.7-1.5C35.5,61,35.7,61,35.9,61
		z"/>
	<path class="st1" d="M47.3,60.9c-0.3-0.5-0.6-0.7-0.8-0.9s-0.5-0.3-0.9-0.3c-0.1,0-0.2,0-0.3,0.1l-2,0.7c-0.1,0.1-0.3,0.1-0.4,0.1
		c-0.3,0-0.5-0.1-0.7-0.2c-0.1-0.1-0.3-0.3-0.6-0.7L41.1,60c0.3,0.5,0.7,0.8,0.9,1c0.3,0.1,0.5,0.3,0.9,0.3c0.1,0,0.3,0,0.5-0.1
		l1.9-0.7c0.1-0.1,0.3-0.1,0.4-0.1c0.3,0,0.4,0.1,0.6,0.1c0.1,0.1,0.3,0.3,0.6,0.7L47.3,60.9"/>
	<path class="st2" d="M61,72c1,6-6.4,6.6-9.4,3.9c-2.1-1.9-1.5-4.5,1.5-4.3C55.7,71.8,57.3,75.2,61,72"/>
	<path class="st2" d="M38.5,72c-1,6,6.4,6.6,9.4,3.9c2.1-1.9,1.5-4.5-1.5-4.3C43.8,71.8,42.2,75.2,38.5,72"/>
	<path class="st1" d="M45.7,63.2c-0.3-0.2-0.7-0.3-1.3-0.3s-1.1,0.2-1.5,0.5c-0.4,0.4-0.6,0.9-0.5,1.7c0.1,0.6,0.3,1.1,0.7,1.5
		c0.3,0.5,0.8,0.7,1.3,0.7c0.3,0,0.7-0.1,1-0.3c0.6-0.3,0.9-1.1,0.9-2.1C46.4,64.2,46.2,63.6,45.7,63.2z M44.5,65.7
		c-0.3,0-0.7-0.3-0.7-0.6c0-0.3,0.3-0.6,0.7-0.6c0.3,0,0.7,0.3,0.7,0.6C45.1,65.4,44.9,65.7,44.5,65.7z"/>
	<path class="st1" d="M50.2,71.1c0.2,0,0.3-0.1,0.5-0.1c0.2-0.1,0.3-0.1,0.5-0.3c0.1-0.1,0.3-0.2,0.4-0.3c0.1-0.1,0.2-0.3,0.3-0.4
		s0.1-0.3,0.2-0.4c0.1-0.1,0.1-0.2,0.1-0.3v-0.1v-0.1l0,0c-0.1,0.3-0.3,0.5-0.5,0.7s-0.4,0.3-0.7,0.4s-0.5,0.1-0.8,0.1
		s-0.5-0.1-0.7-0.1c-0.2-0.1-0.3-0.1-0.5-0.3c-0.1-0.1-0.3-0.3-0.4-0.4c-0.1-0.1-0.2-0.3-0.3-0.5l0,0v0.1v0.1
		c0.1,0.3,0.2,0.5,0.3,0.7s0.3,0.4,0.5,0.6s0.3,0.3,0.6,0.4C49.7,71,50,71.1,50.2,71.1"/>
	<path class="st1" d="M56.1,63.2c-0.3-0.2-0.7-0.3-1.3-0.3s-1.1,0.2-1.5,0.5c-0.5,0.4-0.6,0.9-0.5,1.7c0.1,0.6,0.3,1.1,0.7,1.5
		c0.3,0.5,0.8,0.7,1.3,0.7c0.3,0,0.7-0.1,1-0.3c0.6-0.3,0.9-1.1,0.9-2.1C56.7,64.1,56.5,63.5,56.1,63.2z M54.7,65.7
		c-0.3,0-0.7-0.3-0.7-0.6s0.3-0.6,0.7-0.6c0.3,0,0.7,0.3,0.7,0.6C55.3,65.5,55,65.7,54.7,65.7z"/>
	
		<linearGradient id="SVGID_1_" gradientUnits="userSpaceOnUse" x1="31.7365" y1="1997.1991" x2="70.6118" y2="1997.1991" gradientTransform="matrix(1 0 0 1 0 -1957.9785)">
		<stop  offset="3.970000e-02" style="stop-color:#F9F9EC"/>
		<stop  offset="0.4183" style="stop-color:#F9F9EC"/>
		<stop  offset="0.4932" style="stop-color:#F3F1E2"/>
		<stop  offset="0.6217" style="stop-color:#E4DDC6"/>
		<stop  offset="0.7873" style="stop-color:#CCBC9A"/>
		<stop  offset="0.7969" style="stop-color:#CABA97"/>
		<stop  offset="1" style="stop-color:#BAA685"/>
	</linearGradient>
	<path class="st3" d="M60.5,56c1-0.5,1.5-4,2.3-7.2c2.6-5.8,8.1-10,7.8-15.4c-4.6-9-11.1-9.3-13.9-10.1c-3.6-0.7-7.2-1.1-10.7-0.7
		c-2.6,0.4-5.8,2.8-8.9,3c-2.9,0.9-3.6,2.2-4.4,3.4c-1,2-1.2,4-0.7,6c1.1,3.6,2.8,6.8,3.4,10.6c1.1,2.1,1.2,6.1,3.9,8.7
		C47.5,50.4,54.2,53.4,60.5,56z"/>
	<path class="st4" d="M60.4,56l-0.8-0.3c-6.2-2.6-12.6-5.1-20.4-1.3h-0.1l0,0c-1.7-1.7-2.4-4-3-5.9c-0.3-1-0.6-2-1-2.7l0,0
		c-0.3-2.6-1.3-4.9-2.1-7.1c-0.4-1.1-0.9-2.3-1.3-3.5c-0.5-2-0.2-4,0.7-6c0.1-0.1,0.1-0.2,0.2-0.3c0.7-1.1,1.6-2.2,4.3-3.2
		c1.7-0.1,3.4-0.9,5.1-1.7c1.3-0.6,2.7-1.2,3.8-1.3c3.4-0.5,6.8-0.1,10.7,0.7c0.3,0.1,0.7,0.1,1.1,0.3c3,0.7,8.7,1.8,12.8,9.9l0,0
		c0.2,3.4-1.9,6.2-4.1,9.3c-1.3,1.9-2.7,3.9-3.8,6c-0.1,0.5-0.2,1-0.3,1.5C61.8,53.2,61.3,55.6,60.4,56L60.4,56z M47.2,52.3
		c4.5,0,8.5,1.7,12.5,3.3l0.7,0.3c0.8-0.4,1.3-2.9,1.9-5.6c0.1-0.5,0.2-1.1,0.3-1.5c1-2.2,2.4-4.2,3.8-6.1c2.1-3,4.2-5.9,4-9.2
		c-4.2-8-9.5-9.1-12.7-9.8c-0.4-0.1-0.8-0.1-1.1-0.3c-4-0.7-7.3-1.1-10.7-0.6c-1.1,0.1-2.4,0.7-3.8,1.3c-1.7,0.7-3.4,1.5-5.1,1.7
		c-2.6,0.9-3.5,2-4.2,3.1c-0.1,0.1-0.1,0.1-0.2,0.3c-0.8,1.9-1,3.8-0.6,5.8c0.4,1.2,0.8,2.3,1.3,3.5c0.9,2.3,1.7,4.6,2.1,7.2
		c0.4,0.7,0.7,1.7,1,2.7c0.5,1.9,1.2,4.1,2.9,5.8C42,52.8,44.7,52.3,47.2,52.3z"/>
	
		<linearGradient id="SVGID_2_" gradientUnits="userSpaceOnUse" x1="39.4" y1="2011.1046" x2="60.0011" y2="2011.1046" gradientTransform="matrix(1 0 0 1 0 -1957.9785)">
		<stop  offset="0" style="stop-color:#F9F9EC"/>
		<stop  offset="5.260000e-02" style="stop-color:#F9F9EC"/>
		<stop  offset="0.3844" style="stop-color:#F9F9EC"/>
		<stop  offset="0.5145" style="stop-color:#F5F4E5"/>
		<stop  offset="0.7094" style="stop-color:#EAE5D0"/>
		<stop  offset="0.9441" style="stop-color:#D9CCAF"/>
		<stop  offset="0.9987" style="stop-color:#D4C6A6"/>
	</linearGradient>
	<path class="st5" d="M39.5,56.6c3-1.5,10.4-5.4,20.3,1.3c0.3-1.6,0.3-3.2,0.1-4.8c-0.3-3.8-15.1-8.4-20.5-0.1L39.5,56.6"/>
	<path class="st4" d="M59.8,58L59.8,58c-4.3-3-8.6-4.2-12.7-3.8c-3.5,0.3-6.1,1.7-7.5,2.5h-0.1v-0.1L39.4,53l0,0
		c1.5-2.2,3.6-3.7,6.5-4.4c2.3-0.5,5.2-0.5,7.8,0.3c3.6,0.9,6,2.6,6.2,4.2C60.1,54.7,60.1,56.3,59.8,58L59.8,58z M48.5,54.1
		c3.8,0,7.5,1.3,11.3,3.9c0.3-1.5,0.3-3.2,0.1-4.8c-0.1-1.5-2.7-3.3-6.2-4.2c-2.6-0.7-5.4-0.7-7.8-0.3c-2.9,0.6-5,2.1-6.5,4.3
		l0.1,3.5c1.4-0.7,4-2.1,7.5-2.5C47.5,54.1,48,54.1,48.5,54.1z"/>
	
		<linearGradient id="SVGID_3_" gradientUnits="userSpaceOnUse" x1="32.6212" y1="1992.8761" x2="36.3585" y2="1992.8761" gradientTransform="matrix(1 0 0 1 0 -1957.9785)">
		<stop  offset="0" style="stop-color:#E8DBCA"/>
		<stop  offset="1" style="stop-color:#F2ECDE"/>
	</linearGradient>
	<path class="st6" d="M35.3,28.6c-0.5,2.3,1.6,9.6,0.9,13.4c-0.3-2-1.6-6-1.5-8.2c-0.6-1.3-1.2-3-1.9-3.6
		C32.1,29.6,34.1,26.3,35.3,28.6"/>
	<path class="st7" d="M40,52L40,52c-2.7-3.2-3.8-8.6-4.8-13.2c-0.7-3.6-1.3-6.7-2.6-7.7l0,0c-0.1-0.2-0.3-0.4-0.3-0.7
		c-0.1-0.4,0.1-0.9,0.3-1.3s0.5-0.8,0.9-1.1c0.3-0.2,0.6-0.3,0.9-0.3v0.1c-0.3,0.1-0.6,0.1-0.9,0.3c-0.3,0.4-0.5,0.7-0.7,1.1
		c-0.6,1.2,0.7,1.1,1.1,1.8c1.2,1,1.3,4.2,2.1,7.9C37,43.4,37.3,48.7,40,52L40,52C40,51.9,40,51.9,40,52L40,52"/>
	
		<linearGradient id="SVGID_4_" gradientUnits="userSpaceOnUse" x1="38.1699" y1="1988.7537" x2="40.2218" y2="1991.7482" gradientTransform="matrix(1 0 0 1 0 -1957.9785)">
		<stop  offset="0" style="stop-color:#ECE1D1"/>
		<stop  offset="0.4318" style="stop-color:#EEE6D9"/>
		<stop  offset="1" style="stop-color:#EFE9DE"/>
	</linearGradient>
	<path class="st8" d="M39.9,27.6c-0.5,2.3,0.7,7.6,0,11.4c-0.3-2-1.6-6-1.5-8.2c-0.6-1.3-1.3-2.9-1.8-3.7
		C36.1,26.5,38.2,25.5,39.9,27.6"/>
	<path class="st7" d="M39,26.8c-0.6-0.4-0.8-0.4-1.3-0.3c-0.2,0-0.4,0.1-0.5,0.2s-0.2,0.2-0.3,0.4c0,0.3-0.2,0.3,0,0.7l0,0
		c1.5,2,2.6,5.4,3,8.9c0.4,4.5-0.1,9.5,2.9,13.1l-0.1,0.1c-3-3.6-3.4-8.6-3.8-13.1c-0.3-3.6-0.6-6.8-2.1-8.8l0,0
		c-0.3-0.4-0.4-0.7-0.3-1c0.1-0.2,0.1-0.3,0.3-0.4c0.1-0.1,0.3-0.2,0.5-0.2C37.7,26.2,38.4,26.3,39,26.8L39,26.8"/>
	
		<linearGradient id="SVGID_5_" gradientUnits="userSpaceOnUse" x1="43.7921" y1="1991.0916" x2="47.5956" y2="1991.0916" gradientTransform="matrix(1 0 0 1 0 -1957.9785)">
		<stop  offset="0" style="stop-color:#ECE1D1"/>
		<stop  offset="1" style="stop-color:#EDE4D5"/>
	</linearGradient>
	<path class="st9" d="M47.2,23.6c1.4,2.3-1.1,12.7-1.6,19.2C45.5,43.3,40.6,21.2,47.2,23.6"/>
	<path class="st10" d="M46.6,48.5c-1.6-4-3.3-11.2-3.6-16.8c-0.1-2.2,0-4.2,0.5-5.7c0.4-1.5,1.2-2.5,2.3-2.6c0.4-0.1,0.8,0,1.3,0.1
		v0.1c-0.5-0.1-0.9,0-1.3,0.1c-1,0.2-0.9,0.8-1.5,2.2c-0.4,1.5-0.7,3.3-0.5,5.5C44.7,36.8,45.7,44.3,46.6,48.5L46.6,48.5"/>
	<path id="_x34__4_" class="st11" d="M51.2,48.2c-0.1-0.5-0.1-0.9-0.2-1.3c-1-7.4-2.3-16.4,2.1-23l0.1,0.1c-1.8,4.8-2,14-2.3,16.9
		c-0.1,1.3,0.1,4,0.1,6C51.1,47.3,51.2,47.8,51.2,48.2L51.2,48.2"/>
	
		<linearGradient id="_x35__1_" gradientUnits="userSpaceOnUse" x1="58.5187" y1="1990.8301" x2="58.4203" y2="1995.8552" gradientTransform="matrix(1 0 0 1 0 -1957.9785)">
		<stop  offset="0" style="stop-color:#BAA68A"/>
		<stop  offset="1" style="stop-color:#C7BAA0"/>
	</linearGradient>
	<path id="_x35__4_" class="st12" d="M56,49.2c0.1-3.8,0.5-8.3,0.9-12.2c0.9-4.9,3.4-7.2,4.1-12.1v-0.1c-2.3,3.9-3.7,8.1-4.4,12.2
		C55.9,41.2,55.9,45.3,56,49.2L56,49.2"/>
	
		<linearGradient id="SVGID_6_" gradientUnits="userSpaceOnUse" x1="60.7368" y1="1997.7285" x2="67.4875" y2="1997.7285" gradientTransform="matrix(1 0 0 1 0 -1957.9785)">
		<stop  offset="0" style="stop-color:#BDAE99"/>
		<stop  offset="0.2551" style="stop-color:#BFB19C"/>
		<stop  offset="1" style="stop-color:#C2B5A1"/>
	</linearGradient>
	<path class="st13" d="M67.5,30.6c-2,6.2-4.4,12.1-6.8,18.3C60.8,40.8,65.1,31.1,67.5,30.6"/>
	<path class="st7" d="M59.6,51.6c1.1-1.1,1.1-2.7,1.2-4.7c0.1-1.8,0.2-3.8,1.1-5.8c0-0.1,0.1-0.2,0.1-0.4c0.6-2,2.9-10.2,5.6-10.1
		v0.1c-2.1-0.1-4.8,8-5.5,10C62,40.8,62,41,62,41l0,0c-0.7,2-0.8,4-1.1,5.8C60.9,48.8,60.7,50.5,59.6,51.6L59.6,51.6"/>
</g>
</svg>
