<?xml version="1.0" encoding="utf-8"?>
<!-- Generator: Adobe Illustrator 24.3.0, SVG Export Plug-In . SVG Version: 6.00 Build 0)  -->
<svg version="1.1" id="Layer_1" xmlns="http://www.w3.org/2000/svg" xmlns:xlink="http://www.w3.org/1999/xlink" x="0px" y="0px"
	 viewBox="0 0 100 100" style="enable-background:new 0 0 100 100;" xml:space="preserve">
<style type="text/css">
	.st0{fill-rule:evenodd;clip-rule:evenodd;fill:#181616;}
	.st1{fill:#181616;}
	.st2{fill:#FFFFFF;}
	.st3{fill:none;stroke:#231F20;stroke-width:0.5;stroke-miterlimit:10;}
</style>
<g>
	<g>
		<path class="st0" d="M77.6,50.2c0,12.2-7.9,22.6-18.9,26.2c-0.1,0-0.3,0.1-0.4,0.1c-0.2,0-0.4,0-0.6-0.1c-0.4-0.1-0.7-0.4-0.8-0.8
			c-0.1-0.2-0.1-0.3-0.1-0.5c0-0.7,0-2.5,0-5c0-0.8,0-1.7,0-2.6c0-2.4-0.8-4-1.7-5c-0.1-0.1-0.1-0.1-0.2-0.2
			c1.5-0.2,3.1-0.4,4.6-0.9c0.2-0.1,0.4-0.1,0.6-0.2c1.4-0.6,2.8-1.3,3.9-2.4c2.2-2,3.5-5.2,3.5-10.2c0-1.3-0.2-2.5-0.6-3.6
			c-0.1-0.3-0.2-0.6-0.4-0.9c-0.5-1-1.1-2-1.9-2.8l0,0c0.2-0.5,0.8-2.2,0.4-4.6c0-0.2-0.1-0.3-0.1-0.5c-0.1-0.4-0.2-0.7-0.3-1.1
			c-0.1-0.4-0.2-0.8-0.4-1.2c0,0-2.3-0.7-7.6,2.8c-2.2-0.6-4.6-0.9-6.9-0.9c-2.3,0-4.7,0.3-6.9,0.9c-5.3-3.6-7.6-2.8-7.6-2.8
			c-1.5,3.8-0.6,6.6-0.3,7.3c-1.8,1.9-2.9,4.4-2.9,7.4c0,6.9,2.8,10.3,6.4,12c0,0,0.1,0,0.1,0.1c0.2,0.1,0.4,0.2,0.7,0.3
			c0.1,0,0.1,0,0.1,0.1c0.2,0.1,0.4,0.2,0.7,0.3s0.5,0.2,0.8,0.2c0.2,0.1,0.4,0.1,0.6,0.2c0.2,0.1,0.3,0.1,0.4,0.1
			c0.1,0,0.2,0.1,0.3,0.1c0.5,0.1,1,0.2,1.5,0.3l0,0c0.2,0,0.4,0.1,0.6,0.1c0.2,0,0.4,0.1,0.6,0.1c-0.3,0.3-0.6,0.6-0.8,1
			c-0.4,0.7-0.8,1.6-0.9,2.7l0,0c-0.8,0.3-2.1,0.8-3.5,0.7c-0.1,0-0.2,0-0.3,0c-0.2,0-0.4-0.1-0.7-0.1c-0.1,0-0.2-0.1-0.3-0.1
			c-0.1-0.1-0.2-0.1-0.3-0.1c-0.1-0.1-0.2-0.1-0.3-0.1c-0.2-0.1-0.4-0.2-0.6-0.3c-0.1-0.1-0.1-0.1-0.2-0.1L36.8,66
			c-0.1-0.1-0.2-0.1-0.3-0.2s-0.2-0.1-0.2-0.2c-0.1-0.1-0.3-0.2-0.4-0.4c-0.1-0.1-0.1-0.2-0.2-0.2c-0.1-0.1-0.1-0.1-0.1-0.1
			s-0.1-0.2-0.2-0.2l-0.1-0.1c-0.1-0.1-0.2-0.2-0.2-0.3c-0.1-0.1-0.2-0.2-0.2-0.3c0,0-1.4-2.7-4.3-2.9c0,0-2.7-0.1-0.2,1.7
			c0,0,1.5,0.7,2.8,3.4c0,0.1,0.1,0.1,0.1,0.1c0.1,0.2,0.2,0.4,0.2,0.6c0,0,0.3,0.9,1.2,1.8c1.3,1.2,3.7,2.4,8.1,1.4
			c0,2.3,0.1,4.5,0.1,5.1c0,0.3-0.1,0.8-0.4,1c-0.1,0.1-0.1,0.1-0.2,0.2c-0.2,0.1-0.5,0.2-0.9,0.2c-0.1,0-0.1,0-0.2,0
			s-0.2,0-0.2-0.1c-0.3-0.1-0.6-0.2-0.8-0.3c-0.3-0.1-0.5-0.2-0.8-0.3c-0.3-0.1-0.5-0.2-0.8-0.3c-0.3-0.1-0.5-0.2-0.8-0.3
			c-0.5-0.2-1-0.5-1.5-0.8c-0.2-0.1-0.4-0.3-0.7-0.4c-0.1,0-0.1-0.1-0.1-0.1c-0.2-0.1-0.4-0.3-0.7-0.4c-0.4-0.3-0.9-0.6-1.4-0.9
			c-0.2-0.1-0.3-0.3-0.6-0.4c-0.1-0.1-0.2-0.1-0.2-0.2c-0.2-0.2-0.4-0.3-0.6-0.4c-0.7-0.5-1.3-1-1.8-1.7c-0.2-0.2-0.4-0.4-0.6-0.6
			c-4.4-4.8-7.3-11.5-7.3-19c0-7.7,3.1-14.6,8.1-19.5c0.2-0.2,0.3-0.3,0.5-0.4c0.3-0.3,0.6-0.6,0.9-0.9l0,0c0.3-0.3,0.7-0.6,1-0.8
			c0.7-0.6,1.5-1.1,2.3-1.6c0.2-0.1,0.3-0.2,0.5-0.3c1.8-1,3.6-1.9,5.7-2.6c0.6-0.2,1-0.3,1.6-0.5c2.3-0.6,4.6-0.9,7.1-0.9
			c2.2,0,4.3,0.2,6.2,0.7c0.4,0.1,0.9,0.2,1.3,0.3l0,0c1.1,0.3,2.2,0.7,3.2,1.1c0.2,0.1,0.4,0.2,0.6,0.3c2.9,1.3,5.6,3.1,7.8,5.3
			c0.1,0.1,0.2,0.2,0.3,0.3c0.2,0.2,0.3,0.3,0.4,0.5c0.2,0.2,0.3,0.3,0.4,0.5s0.3,0.3,0.4,0.5c0.2,0.2,0.3,0.3,0.4,0.5
			s0.2,0.3,0.3,0.4c0.2,0.2,0.3,0.4,0.5,0.7s0.5,0.7,0.7,1c0.4,0.6,0.8,1.2,1.2,1.8c0.1,0.2,0.2,0.3,0.3,0.5c0.2,0.3,0.3,0.7,0.5,1
			c0.1,0.2,0.2,0.3,0.2,0.5c0.2,0.5,0.4,1,0.7,1.5c0.1,0.2,0.2,0.4,0.2,0.6c0.3,0.8,0.6,1.7,0.8,2.5c0.1,0.2,0.1,0.3,0.1,0.4
			c0.2,0.8,0.3,1.6,0.5,2.4c0.1,0.2,0.1,0.4,0.1,0.7c0.1,0.4,0.1,0.9,0.2,1.4C77.6,48.7,77.6,49.4,77.6,50.2z"/>
		<path class="st1" d="M32.9,62.2c-0.1,0.2-0.3,0.2-0.5,0.1c-0.2-0.1-0.3-0.3-0.2-0.4c0.1-0.2,0.3-0.2,0.5-0.1
			C32.8,61.9,32.9,62,32.9,62.2z"/>
		<path class="st1" d="M34,63.5c-0.1,0.1-0.4,0.1-0.6-0.1c-0.2-0.2-0.2-0.4-0.1-0.6c0.1-0.1,0.4-0.1,0.6,0.1S34.1,63.3,34,63.5z"/>
		<path class="st1" d="M35.1,65c-0.2,0.1-0.4,0-0.6-0.2c-0.2-0.2-0.2-0.6,0-0.7s0.4,0,0.6,0.2C35.2,64.6,35.2,64.9,35.1,65z"/>
		<path class="st1" d="M36.6,66.6c-0.2,0.2-0.5,0.1-0.7-0.1s-0.3-0.6-0.2-0.7c0.2-0.2,0.5-0.1,0.7,0.1S36.7,66.4,36.6,66.6z"/>
		<path class="st1" d="M38.6,67.4c-0.1,0.2-0.4,0.3-0.7,0.2c-0.3-0.1-0.5-0.3-0.4-0.6c0.1-0.2,0.4-0.3,0.7-0.2
			C38.4,67,38.7,67.3,38.6,67.4z"/>
		<path class="st1" d="M40.9,67.6c0,0.2-0.3,0.4-0.6,0.4s-0.6-0.2-0.6-0.4c0-0.2,0.3-0.4,0.6-0.4S40.9,67.4,40.9,67.6z"/>
		<path class="st1" d="M43,67.3c0.1,0.2-0.2,0.4-0.5,0.5s-0.6-0.1-0.7-0.3s0.2-0.4,0.5-0.5S42.9,67.1,43,67.3z"/>
	</g>
	<path class="st2" d="M67,45c-0.1-0.3-0.2-0.6-0.4-0.9c-0.5-1-1.1-2-1.9-2.8l0,0c0.2-0.5,0.8-2.2,0.4-4.6c0-0.2-0.1-0.3-0.1-0.5
		c-0.1-0.4-0.2-0.7-0.3-1.1c-0.1-0.4-0.2-0.8-0.4-1.2c0,0-2.3-0.7-7.6,2.8c-2.2-0.6-4.6-0.9-6.9-0.9c-2.3,0-4.7,0.3-6.9,0.9
		c-5.3-3.6-7.6-2.8-7.6-2.8c-1.5,3.8-0.6,6.6-0.3,7.3c-1.8,1.9-2.9,4.4-2.9,7.4c0,6.9,2.8,10.3,6.4,12c0,0,0.1,0,0.1,0.1
		c0.2,0.1,0.4,0.2,0.7,0.3c0.1,0,0.1,0,0.1,0.1c0.2,0.1,0.4,0.2,0.7,0.3c0.2,0.1,0.5,0.2,0.8,0.2c0.2,0.1,0.4,0.1,0.6,0.2
		c0.1,0.1,0.3,0.1,0.4,0.1c0.1,0,0.2,0.1,0.3,0.1c0.5,0.1,1,0.2,1.5,0.3l0,0c0.2,0,0.4,0.1,0.6,0.1c0.2,0,0.4,0.1,0.6,0.1
		c-0.3,0.3-0.6,0.6-0.8,1c-0.4,0.7-0.8,1.6-0.9,2.7l0,0c-0.8,0.3-2.1,0.8-3.5,0.7c-0.1,0-0.2,0-0.3,0c-0.2,0-0.4-0.1-0.7-0.1
		c-0.1,0-0.2-0.1-0.3-0.1s-0.2-0.1-0.3-0.1s-0.2-0.1-0.3-0.1c-0.2-0.1-0.4-0.2-0.6-0.3c-0.1-0.1-0.1-0.1-0.2-0.1L36.9,66
		c-0.1-0.1-0.2-0.1-0.3-0.2s-0.2-0.1-0.2-0.2c-0.1-0.1-0.3-0.2-0.4-0.4c-0.1-0.1-0.1-0.2-0.2-0.2c-0.1-0.1-0.1-0.1-0.1-0.1
		s-0.1-0.2-0.2-0.2l-0.1-0.1c-0.1-0.1-0.2-0.2-0.2-0.3C35.1,64.2,35,64.1,35,64c0,0-1.4-2.7-4.3-2.9c0,0-2.7-0.1-0.2,1.7
		c0,0,1.5,0.7,2.8,3.4l0,0c0,0.1,0.1,0.1,0.1,0.1c0.1,0.2,0.2,0.4,0.2,0.6c0,0,0.3,0.9,1.2,1.8c1.3,1.2,3.7,2.4,8.1,1.4l0,0
		c0,2.3,0.1,4.5,0.1,5.1c0,0.3-0.1,0.8-0.4,1c-0.1,0.1-0.1,0.1-0.2,0.2c-0.2,0.1-0.5,0.2-0.9,0.2c2.7,0.8,5.5,1.3,8.3,1.3
		c2.9,0,5.7-0.4,8.3-1.3c-0.2,0-0.4,0-0.6-0.1c-0.4-0.1-0.7-0.4-0.8-0.8c-0.1-0.2-0.1-0.3-0.1-0.5c0-0.7,0-2.5,0-5
		c0-0.8,0-1.7,0-2.6c0-2.4-0.8-4-1.7-5c-0.1-0.1-0.1-0.1-0.2-0.2c1.5-0.2,3.1-0.4,4.6-0.9c0.2-0.1,0.4-0.1,0.6-0.2
		c1.4-0.6,2.8-1.3,3.9-2.4c2.2-2,3.5-5.2,3.5-10.2C67.6,47.4,67.4,46.2,67,45z M32.9,62.2c-0.1,0.2-0.3,0.2-0.5,0.1
		c-0.2-0.1-0.3-0.3-0.2-0.4c0.1-0.2,0.3-0.2,0.5-0.1C32.8,61.9,32.9,62,32.9,62.2z M34,63.5c-0.1,0.1-0.4,0.1-0.6-0.1
		c-0.2-0.2-0.2-0.4-0.1-0.6c0.1-0.1,0.4-0.1,0.6,0.1S34.1,63.3,34,63.5z M35.1,65c-0.2,0.1-0.4,0-0.6-0.2c-0.2-0.2-0.2-0.6,0-0.7
		s0.4,0,0.6,0.2C35.2,64.6,35.2,64.9,35.1,65z M36.6,66.6c-0.2,0.2-0.5,0.1-0.7-0.1s-0.3-0.6-0.2-0.7c0.2-0.2,0.5-0.1,0.7,0.1
		S36.7,66.4,36.6,66.6z M38.6,67.4c-0.1,0.2-0.4,0.3-0.7,0.2c-0.3-0.1-0.5-0.3-0.4-0.6c0.1-0.2,0.4-0.3,0.7-0.2
		C38.4,67,38.7,67.3,38.6,67.4z M40.3,68.1c-0.3,0-0.6-0.2-0.6-0.4c0-0.2,0.3-0.4,0.6-0.4s0.6,0.2,0.6,0.4
		C40.9,67.9,40.6,68.1,40.3,68.1z M42.5,67.8c-0.3,0.1-0.6-0.1-0.7-0.3c-0.1-0.2,0.2-0.4,0.5-0.5s0.6,0.1,0.7,0.3
		C43,67.5,42.8,67.7,42.5,67.8z"/>
	<g>
		<path class="st3" d="M32.6,61.8c0.2,0.1,0.3,0.3,0.2,0.4c-0.1,0.2-0.3,0.2-0.5,0.1c-0.2-0.1-0.3-0.3-0.2-0.4
			C32.2,61.7,32.4,61.7,32.6,61.8z"/>
		<path class="st3" d="M33.8,62.9c0.2,0.2,0.2,0.4,0.1,0.6c-0.1,0.1-0.4,0.1-0.6-0.1c-0.2-0.2-0.2-0.4-0.1-0.6
			C33.5,62.6,33.7,62.7,33.8,62.9z"/>
		<path class="st3" d="M35.1,64.4c0.2,0.2,0.2,0.6,0,0.7s-0.4,0-0.6-0.2c-0.2-0.2-0.2-0.6,0-0.7C34.6,64,34.9,64.1,35.1,64.4z"/>
		<path class="st3" d="M36.4,65.9c0.2,0.2,0.3,0.6,0.2,0.7c-0.2,0.2-0.5,0.1-0.7-0.1s-0.3-0.6-0.2-0.7
			C35.8,65.6,36.2,65.6,36.4,65.9z"/>
		<path class="st3" d="M38.2,66.9c0.3,0.1,0.5,0.3,0.4,0.6s-0.4,0.3-0.7,0.2c-0.3-0.1-0.5-0.3-0.4-0.6
			C37.5,66.9,37.8,66.8,38.2,66.9z"/>
		<path class="st3" d="M40.3,67.2c0.3,0,0.6,0.2,0.6,0.4c0,0.2-0.3,0.4-0.6,0.4s-0.6-0.2-0.6-0.4C39.6,67.4,39.9,67.2,40.3,67.2z"/>
		<path class="st3" d="M43,67.3c0.1,0.2-0.2,0.4-0.5,0.5s-0.6-0.1-0.7-0.3s0.2-0.4,0.5-0.5S42.9,67.1,43,67.3z"/>
	</g>
</g>
</svg>
