<?xml version="1.0" encoding="utf-8"?>
<!-- Generator: Adobe Illustrator 24.3.0, SVG Export Plug-In . SVG Version: 6.00 Build 0)  -->
<svg version="1.1" id="Layer_1" xmlns="http://www.w3.org/2000/svg" xmlns:xlink="http://www.w3.org/1999/xlink" x="0px" y="0px"
	 viewBox="0 0 100 100" style="enable-background:new 0 0 100 100;" xml:space="preserve">
<style type="text/css">
	.st0{fill:#F9BC04;}
	.st1{fill:#E6433D;}
	.st2{fill:#4385F5;}
	.st3{fill:#35AD55;}
</style>
<g>
	<polygon class="st0" points="47.4,31.6 47.5,47.4 37.2,55.7 33.3,58.7 33.3,17.7 33.3,17.7 38.6,22.9 	"/>
	<path class="st1" d="M71.9,28.4l-10.6,8.2c-1.2-2.9-4-5-7.3-5h-6.6l-0.2-0.2l-8.8-8.7l-5.3-5.2h19.6C60.9,17.5,68.1,21.9,71.9,28.4
		z"/>
	<path class="st2" d="M75,39.8c0,5.4-1.9,10.3-5.1,14.1l-9.7-9.6c1-1.3,1.7-3,1.7-4.8c0-1-0.2-2-0.5-2.9L72,28.4
		C73.9,31.8,75,35.6,75,39.8z"/>
	<path class="st3" d="M70,53.9c-4.1,5-10.3,8.1-17.2,8.1c-1.9,0-3.7-0.2-5.5-0.7v21.1H33.1V58.6l3.9-3l10.2-7.9l0.3-0.2H54
		c2.5,0,4.8-1.2,6.2-3L70,53.9z"/>
</g>
</svg>
