<?xml version="1.0" encoding="utf-8"?>
<!-- Generator: Adobe Illustrator 24.3.0, SVG Export Plug-In . SVG Version: 6.00 Build 0)  -->
<svg version="1.1" id="Layer_1" xmlns="http://www.w3.org/2000/svg" xmlns:xlink="http://www.w3.org/1999/xlink" x="0px" y="0px"
	 viewBox="0 0 100 100" style="enable-background:new 0 0 100 100;" xml:space="preserve">
<style type="text/css">
	.st0{fill:#4385F5;}
	.st1{fill:#35AD55;}
	.st2{fill:#E6433D;}
	.st3{fill:#F9BC04;}
</style>
<g>
	<path class="st0" d="M80,57.5c-0.8,6.1-2.9,11.2-6.3,15.3C69,78.4,62.8,81.6,55,82.3L52.3,67c3.5-0.2,6-1.9,7.6-4.8
		c0.7-1.3,1.1-2.8,1.3-4.7H80z"/>
	<path class="st1" d="M55,82.3c-1.1,0.1-2.3,0.2-3.5,0.2c-8.2,0-15.1-2.4-20.7-7.3c-3.2-2.8-5.7-6.1-7.6-10.2
		C21,60.4,20,55.3,20,49.8c0-1.4,0.1-2.8,0.2-4.2l19.2-0.9c-0.3,1.8-0.5,3.7-0.5,5.7c0,5.6,1.3,10,4,13.1c2.1,2.4,4.8,3.6,8.3,3.6
		c0.3,0,0.6,0,0.9,0L55,82.3z"/>
	<path class="st2" d="M79.4,42H61.1c-0.3-2.5-1.1-4.4-2.4-5.9c-1.9-2.2-4.6-3.3-8-3.3c-1.7,0-3.2,0.3-4.5,1l-2.8-15.6
		c2.2-0.5,4.5-0.7,6.9-0.7c6.6,0,12.4,1.7,17.5,5.1c5,3.3,8.4,7.4,10.2,12.4C78.7,36.9,79.2,39.2,79.4,42z"/>
	<path class="st3" d="M46.3,33.8c-1.2,0.6-2.3,1.5-3.2,2.6c-1.8,2.3-3,5-3.6,8.3l-19.2,0.9c0.5-4.6,1.8-9,4.1-13
		c3.2-5.8,7.8-10,13.7-12.6c1.8-0.8,3.6-1.4,5.6-1.8L46.3,33.8z"/>
</g>
</svg>
