<?xml version="1.0" encoding="utf-8"?>
<!-- Generator: Adobe Illustrator 24.3.0, SVG Export Plug-In . SVG Version: 6.00 Build 0)  -->
<svg version="1.1" id="Layer_1" xmlns="http://www.w3.org/2000/svg" xmlns:xlink="http://www.w3.org/1999/xlink" x="0px" y="0px"
	 viewBox="0 0 100 100" style="enable-background:new 0 0 100 100;" xml:space="preserve">
<style type="text/css">
	.st0{fill:#20BEFF;}
</style>
<g id="_x31_89-kaggle">
	<g>
		<path class="st0" d="M64.1,73.9L49.8,56.2L63.5,43c0.2-0.2,0.1-1-0.5-1h-6.8c-0.3,0-0.7,0.2-1,0.5L42.3,55.6V25.7
			c0-0.5-0.2-0.7-0.7-0.7h-5c-0.5,0-0.7,0.2-0.7,0.7v48.5c0,0.5,0.2,0.7,0.7,0.7h5c0.5,0,0.7-0.2,0.7-0.7V63.6l3-2.8l10.8,13.7
			c0.3,0.3,0.6,0.5,1,0.5h6.5c0.3,0,0.5-0.1,0.6-0.3L64.1,73.9z"/>
	</g>
</g>
</svg>
