<?xml version="1.0" encoding="utf-8"?>
<!-- Generator: Adobe Illustrator 24.3.0, SVG Export Plug-In . SVG Version: 6.00 Build 0)  -->
<svg version="1.1" id="Layer_1" xmlns="http://www.w3.org/2000/svg" xmlns:xlink="http://www.w3.org/1999/xlink" x="0px" y="0px"
	 viewBox="0 0 100 100" style="enable-background:new 0 0 100 100;" xml:space="preserve">
<style type="text/css">
	.st0{fill:#FFA116;}
	.st1{fill-rule:evenodd;clip-rule:evenodd;fill:#B3B3B3;}
	.st2{fill-rule:evenodd;clip-rule:evenodd;}
</style>
<desc>Created with Sketch.</desc>
<g>
	<path id="Combined-Shape" class="st0" d="M62,66.2c1.5-1.5,3.8-1.5,5.3,0c1.5,1.5,1.5,3.8,0,5.3l-6.5,6.5c-6,6-15.7,6.1-21.8,0.2
		c0,0-2.7-2.7-11.7-11.4c-5.9-5.8-6.5-15.1-0.9-21.1l10.4-11.2c5.5-5.9,15.8-6.6,22.1-1.5l9.5,7.7c1.6,1.3,1.9,3.6,0.6,5.3
		c-1.3,1.6-3.6,1.9-5.2,0.6l-9.5-7.7c-3.3-2.7-9.1-2.3-12,0.8L31.8,50.7c-2.7,2.9-2.4,7.6,0.7,10.7c6.6,6.4,11.6,11.4,11.6,11.4
		c3.2,3,8.3,3,11.4-0.1L62,66.2z"/>
	<path id="Path-2" class="st1" d="M46.3,59.7c-2.1,0-3.7-1.7-3.7-3.7c0-2.1,1.7-3.7,3.7-3.7h27.5c2.1,0,3.7,1.7,3.7,3.7
		c0,2.1-1.7,3.7-3.7,3.7H46.3z"/>
	<path id="Stroke-3" class="st2" d="M51.4,18.7c1.4-1.5,3.8-1.6,5.3-0.2c1.5,1.4,1.6,3.8,0.2,5.3l-25,26.8
		c-2.7,2.9-2.4,7.6,0.7,10.7l11.6,11.3c1.5,1.4,1.5,3.8,0.1,5.3c-1.4,1.5-3.8,1.5-5.3,0.1L27.3,66.7c-5.9-5.8-6.5-15.1-0.9-21.1
		L51.4,18.7z"/>
</g>
</svg>
