<?xml version="1.0" encoding="utf-8"?>
<!-- Generator: Adobe Illustrator 24.3.0, SVG Export Plug-In . SVG Version: 6.00 Build 0)  -->
<svg version="1.1" id="Layer_1" xmlns="http://www.w3.org/2000/svg" xmlns:xlink="http://www.w3.org/1999/xlink" x="0px" y="0px"
	 viewBox="0 0 100 100" style="enable-background:new 0 0 100 100;" xml:space="preserve">
<style type="text/css">
	.st0{fill:#FFFFFF;}
</style>
<g>
	<path class="st0" d="M22.4,65.3c0-10.2,0-20.4,0-30.7c0.1-0.2,0.2-0.4,0.2-0.7c1.2-5.7,4.6-9.4,10.2-11.1c0.6-0.2,1.2-0.3,1.9-0.4
		c14.3,0,28.6,0,42.8,0c0,14.3,0,28.6,0,42.8c-0.1,0.2-0.2,0.4-0.2,0.7c-1.2,5.7-4.6,9.4-10.2,11.1c-0.6,0.2-1.2,0.3-1.8,0.4
		c-10.2,0-20.4,0-30.7,0c-0.2-0.1-0.4-0.2-0.7-0.2c-5.7-1.2-9.5-4.5-11.1-10.1C22.7,66.5,22.6,65.9,22.4,65.3z M60.3,29.9
		c-0.4,1.3-0.8,2.3-1.2,3.4c-0.2,0.6-0.2,1,0.2,1.5C63,41,66.7,47.2,70.5,53.5c0.2,0.3,0.4,0.6,0.4,0.9c0.1,2.2-2.1,4.6-4.2,4.8
		c-0.7-0.9-1.2-1.8-1.9-2.5c-1.6-1.9-3.5-3.6-5.6-5c-2.8-2-5.6-4-8.3-6.2c-1.2-0.9-2-2.2-3-3.4c-0.6-0.8-0.8-1.8-0.7-2.8
		c0-0.3-0.2-0.6-0.3-0.8c-0.2,0.2-0.5,0.4-0.6,0.8c-0.4,1.5,0,2.9,0.7,4.3c0.9,1.9,2.2,3.5,3.7,4.8c2.4,2.1,4.8,4.1,7.3,6.1
		s4.8,4.3,6.7,7c0.8,1,0.7,1.1,2,0.6c0.5-0.2,1.1-0.3,1.5-0.7c1.3-0.9,2.8-1.7,3.9-2.9c1.8-1.8,1.9-4,0.7-6.2
		C69.3,46,66,39.9,62.6,33.8c-0.2-0.4-0.3-1-0.2-1.4c0.2-1.7,0.7-3.3,1-5c0.1-0.5,0.1-0.9-0.6-0.9c-2.8,0.3-5.6,0.8-8,2.3
		c-0.4,0.3-0.9,0.4-1.4,0.4c-2.9-0.1-5.8,0-8.8,0.6c-16.2,3-20.3,17.8-17.3,27.5c2.4,8,8,12.8,15.8,15.1c5.7,1.7,11.2,1.5,16.6-1.2
		c2.3-1.2,4.2-2.8,5.6-4.8c0.2-0.3,0.2-0.7,0.2-1c-0.3,0.1-0.7,0.2-0.9,0.4c-6.3,6.1-15.5,7.5-23.5,3.6C34,65.8,29.7,60,29.3,52
		c-0.5-8.6,5.8-16.7,14.1-18.9c3.1-0.8,6.3-0.8,9.5-0.3c0.5,0.1,1.2-0.1,1.7-0.3c1.3-0.6,2.5-1.3,3.8-2
		C58.9,30.3,59.5,30.1,60.3,29.9z"/>
	<path d="M60.3,29.9c-0.8,0.2-1.4,0.3-1.9,0.6c-1.3,0.6-2.5,1.4-3.8,2c-0.5,0.2-1.1,0.4-1.7,0.3c-3.2-0.4-6.4-0.5-9.5,0.3
		C35.1,35.3,28.8,43.4,29.3,52c0.4,8,4.7,13.8,11.8,17.3c7.9,3.9,17.1,2.4,23.5-3.6c0.2-0.2,0.6-0.3,0.9-0.4c-0.1,0.3-0.1,0.8-0.2,1
		c-1.5,2.1-3.4,3.7-5.6,4.8c-5.3,2.7-11,2.9-16.6,1.2c-7.8-2.3-13.4-7.2-15.8-15.1c-2.9-9.6,1.1-24.5,17.3-27.5
		c2.9-0.6,5.8-0.6,8.8-0.6c0.5,0,1-0.1,1.4-0.4c2.5-1.5,5.2-2,8-2.3c0.7-0.1,0.7,0.4,0.6,0.9c-0.4,1.7-0.8,3.3-1.2,5
		c-0.1,0.4,0,1,0.2,1.4c3.4,6.2,6.8,12.3,10.1,18.4c1.2,2.2,1.1,4.4-0.7,6.2c-1.1,1.2-2.5,2-3.9,2.9c-0.4,0.3-1,0.4-1.5,0.7
		c-1.3,0.5-1.3,0.4-2-0.6c-1.9-2.6-4.1-5-6.7-7c-2.5-2-4.9-4-7.3-6.1c-1.5-1.3-2.8-2.9-3.7-4.8c-0.7-1.4-1-2.8-0.7-4.3
		c0.1-0.3,0.4-0.5,0.6-0.8c0.1,0.3,0.3,0.6,0.3,0.8c-0.1,1,0.1,2,0.7,2.8c0.9,1.2,1.8,2.5,3,3.4c2.7,2.1,5.5,4.2,8.3,6.2
		c2.1,1.4,3.9,3.1,5.6,5c0.7,0.8,1.2,1.7,1.9,2.5c2.1-0.2,4.3-2.6,4.2-4.8c0-0.3-0.2-0.7-0.4-0.9c-3.7-6.2-7.4-12.4-11.2-18.7
		c-0.3-0.5-0.4-0.9-0.2-1.5C59.5,32.3,59.9,31.2,60.3,29.9z"/>
</g>
</svg>
