<?xml version="1.0" encoding="utf-8"?>
<!-- Generator: Adobe Illustrator 24.3.0, SVG Export Plug-In . SVG Version: 6.00 Build 0)  -->
<svg version="1.1" id="Layer_1" xmlns="http://www.w3.org/2000/svg" xmlns:xlink="http://www.w3.org/1999/xlink" x="0px" y="0px"
	 viewBox="0 0 100 100" style="enable-background:new 0 0 100 100;" xml:space="preserve">
<style type="text/css">
	.st0{fill:#009CD6;}
	.st1{fill:#0598C6;}
	.st2{fill:#FFFFFF;}
</style>
<path class="st0" d="M77.5,33.9v32.2c0,6.3-5.1,11.4-11.4,11.4l0,0H33.9c-6.3,0-8.7,0-11.4,0V66.1V22.5h55
	C77.5,24.9,77.5,27.6,77.5,33.9L77.5,33.9z"/>
<path class="st1" d="M77.5,33.9v43.6c-5.5,0-5.5,0-11.4,0l0,0H33.9c-3.3,0-7.5,0-11.4,0l55-55C77.5,26.7,77.5,30.6,77.5,33.9z"/>
<rect x="33.2" y="43.5" class="st2" width="7.5" height="24.3"/>
<path class="st2" d="M60.2,43.4c-7.4,0-8.9,3.9-8.9,3.9v-3.9h-7.5v24.3h7.5V54c0.6-2.3,2.6-4.1,5.3-4.1c3.3,0,3.7,4.2,3.7,4.2v13.7
	h7.5V50.9C67.7,46.8,64.4,43.4,60.2,43.4L60.2,43.4z"/>
<circle class="st2" cx="36.9" cy="36.9" r="4.6"/>
</svg>
