<?xml version="1.0" encoding="utf-8"?>
<!-- Generator: Adobe Illustrator 24.3.0, SVG Export Plug-In . SVG Version: 6.00 Build 0)  -->
<svg version="1.1" id="Layer_1" xmlns="http://www.w3.org/2000/svg" xmlns:xlink="http://www.w3.org/1999/xlink" x="0px" y="0px"
	 viewBox="0 0 100 100" style="enable-background:new 0 0 100 100;" xml:space="preserve">
<style type="text/css">
	.st0{fill:#FFFFFF;}
</style>
<g>
	<path d="M25.8,22.5h48.5c1.8,0,3.3,1.5,3.3,3.3v48.5c0,1.8-1.5,3.3-3.3,3.3H25.8c-1.8,0-3.3-1.5-3.3-3.3V25.8
		C22.5,24,24,22.5,25.8,22.5z"/>
	<path class="st0" d="M41.6,39.1c6,0,10.8,4.9,10.8,10.9s-4.8,10.9-10.8,10.9S30.8,56,30.8,50S35.6,39.1,41.6,39.1z M59,39.7
		c3,0,5.4,4.6,5.4,10.3l0,0c0,5.7-2.4,10.3-5.4,10.3s-5.4-4.6-5.4-10.3S55.9,39.7,59,39.7z M67.3,40.8c1,0,1.9,4.1,1.9,9.2
		s-0.9,9.2-1.9,9.2s-1.9-4.1-1.9-9.2S66.3,40.8,67.3,40.8z"/>
</g>
</svg>
