<?xml version="1.0" encoding="utf-8"?>
<!-- Generator: Adobe Illustrator 24.3.0, SVG Export Plug-In . SVG Version: 6.00 Build 0)  -->
<svg version="1.1" id="Layer_1" xmlns="http://www.w3.org/2000/svg" xmlns:xlink="http://www.w3.org/1999/xlink" x="0px" y="0px"
	 viewBox="0 0 100 100" style="enable-background:new 0 0 100 100;" xml:space="preserve">
<style type="text/css">
	.st0{fill:#56676E;}
	.st1{fill:#4E4F50;}
</style>
<g>
	<path class="st0" d="M75.8,40.4C77.5,67.5,49,63.8,49,63.8c19.6,0.3,27.9-36.9-4-40.8c1.6-0.3,3.3-0.5,5-0.5
		C61.8,22.5,71.9,30,75.8,40.4z"/>
	<path class="st0" d="M63.5,51.6c0,0,6.8-28.4-23.6-27.1c-10.2,4-17.4,13.9-17.4,25.5c0,1.2,0.1,2.5,0.3,3.7
		C29.2,21.5,65.6,31.9,63.5,51.6L63.5,51.6z"/>
	<path class="st0" d="M24.3,60c-0.4-31.1,28.1-23.1,28.1-23.1C32.8,34,20.7,69.7,52.7,77.4c-0.9,0.1-1.8,0.1-2.7,0.1c0,0,0,0-0.1,0
		c0,0,0,0-0.1,0c-1.2,0-2.4-0.1-3.6-0.3c-0.4,0-0.7-0.1-1.1-0.2c-1.2-0.2-2.3-0.5-3.4-0.8c-0.1,0-0.3-0.1-0.4-0.1l0,0l0,0
		c-0.1,0-0.2-0.1-0.3-0.1c-0.9-0.3-1.9-0.7-2.7-1.1l-0.2-0.1c-0.2-0.1-0.5-0.2-0.7-0.3c-1-0.5-2-1.1-3-1.8c-0.1-0.1-0.2-0.1-0.2-0.2
		l0,0l0,0c-0.1,0-0.1-0.1-0.2-0.1c-0.9-0.7-1.8-1.4-2.6-2.1l-0.1-0.1l0,0l0,0l0,0C31.1,70,31,69.9,31,69.9
		C28.1,67.1,25.8,63.7,24.3,60z"/>
	<path class="st0" d="M59.6,75.7c-30.7-0.2-23-28.4-23-28.4c-3.1,19.5,32.7,32,40.8,0.1c0.1,0.8,0.1,1.7,0.1,2.5c0,0.1,0,0.2,0,0.3
		l0,0c0,0.1,0,0.2,0,0.3c0,0.7,0,1.5-0.1,2.2C76.3,63.3,69.2,72.1,59.6,75.7L59.6,75.7z"/>
	<path class="st1" d="M57.7,50c0,1.5-0.5,3-1.3,4.3s-2.1,2.3-3.5,2.8c-1.4,0.6-3,0.7-4.5,0.4s-2.9-1-3.9-2.1
		c-2.2-2.2-2.9-5.5-1.7-8.4c0.6-1.4,1.6-2.6,2.8-3.5c1.3-0.8,2.8-1.3,4.3-1.3c2,0,4,0.8,5.4,2.3C56.9,46,57.7,47.9,57.7,50L57.7,50z
		"/>
</g>
</svg>
