<?xml version="1.0" encoding="utf-8"?>
<!-- Generator: Adobe Illustrator 24.3.0, SVG Export Plug-In . SVG Version: 6.00 Build 0)  -->
<svg version="1.1" id="Layer_1" xmlns="http://www.w3.org/2000/svg" xmlns:xlink="http://www.w3.org/1999/xlink" x="0px" y="0px"
	 viewBox="0 0 100 100" style="enable-background:new 0 0 100 100;" xml:space="preserve">
<style type="text/css">
	.st0{fill:#FFFFFF;}
	.st1{fill:#0079C0;}
</style>
<g>
	<path class="st0" d="M75.1,32.7v31.8c0,3.3,0.7,5.8-2.6,5.8H54.1c-3.3,0-6-2.7-6-6V32.5c0-3.3,2.7-6,6-6h18.5
		C75.9,26.5,75.1,29.4,75.1,32.7z"/>
	<path class="st0" d="M47.9,28.9v43c0,3.3-2.7,4.9-6,4.9h-8.5c-3.3,0-6-1.6-6-4.9v-43c0-3.3,2.7-6,6-6h8.5
		C45.2,22.9,47.9,25.6,47.9,28.9z"/>
	<path class="st1" d="M70.1,22.5H28.9c-3.8,0-6.9,3.1-6.9,6.9v41.2c0,3.8,3.1,6.9,6.9,6.9h41.2c3.8,0,6.9-3.1,6.9-6.9V29.4
		C77,25.6,73.9,22.5,70.1,22.5z M45.9,64.1c0,1.8-1.5,3.3-3.3,3.3H32.5c-1.8,0-3.3-1.5-3.3-3.3V33c0-1.8,1.5-3.3,3.3-3.3h10.2
		c1.8,0,3.3,1.5,3.3,3.3L45.9,64.1L45.9,64.1z M69.8,50.4c0,1.8-1.5,3.3-3.3,3.3H56.4c-1.8,0-3.3-1.5-3.3-3.3V33
		c0-1.8,1.5-3.3,3.3-3.3h10.2c1.8,0,3.3,1.5,3.3,3.3L69.8,50.4L69.8,50.4z"/>
</g>
</svg>
