<?xml version="1.0" encoding="utf-8"?>
<!-- Generator: Adobe Illustrator 24.3.0, SVG Export Plug-In . SVG Version: 6.00 Build 0)  -->
<svg version="1.1" id="Layer_1" xmlns="http://www.w3.org/2000/svg" xmlns:xlink="http://www.w3.org/1999/xlink" x="0px" y="0px"
	 viewBox="0 0 100 100" style="enable-background:new 0 0 100 100;" xml:space="preserve">
<style type="text/css">
	.st0{fill:#EB524F;}
</style>
<path class="st0" d="M39.2,22.7c3,0.9,3.9,3.3,3.9,6.1c0,2.1-0.3,4.3-0.8,6.4c-1.1,4.8-2.5,9.6-3.6,14.4c-0.9,4-1.8,7.9-1.8,12.1
	c0,1.1,0.2,2.2,0.5,3.3c0.6,2.1,2.4,2.3,3.7,1c0.8-0.8,1.7-1.7,2.3-2.6c3.4-4.5,6.3-9.2,8.9-14.2c2.5-4.8,8.1-15.6,8.5-16.2
	c1.8-3.2,6.6-2.7,8.1,0.4c0.8,1.7,1.3,3.6,1.4,5.4c0.1,4.1,0.5,15.5,0.7,17.1c0.3,3.1,2.4,4.1,5,2.4c1.7-1,3.1-2.4,4.6-3.7
	c1.4-1.2,2.1-1.1,2.8,0.6c0.6,1.5,0.3,3-0.2,4.4c-1.7,4.8-5.2,7.4-10,8.4c-1.5,0.3-3.1,0.4-4.6,0.1c-3.4-0.6-5.6-2.5-6.9-5.6
	c-1.3-3-1.7-11.4-1.9-12.5c-0.4,1-5.9,12.3-8.9,16.6c-1.8,2.8-4,5.3-6.6,7.4c-2.5,2.1-5.3,3.4-8.7,3.5c-4,0.1-6.9-1.7-9-5.1
	c-1.3-2.2-1.8-4.6-2-7.2c-0.3-3.5,0.3-7,1.1-10.5c0.3-1.1,0.4-2.3,0.7-3.7c-1.1,0.6-1.8,1.1-2.6,1.4c-1,0.3-2,0.7-3.1,0.7
	c-3.6-0.1-4.2-4.1-4.2-4.8c1.3-0.9,2.5-1.8,3.7-2.9c5.4-5,9.5-10.8,12.4-17.5c1-2.2,2.2-4.1,4.3-5.2C37.6,22.4,38.2,22.4,39.2,22.7z
	"/>
</svg>
