<?xml version="1.0" encoding="utf-8"?>
<!-- Generator: Adobe Illustrator 24.3.0, SVG Export Plug-In . SVG Version: 6.00 Build 0)  -->
<svg version="1.1" id="Layer_1" xmlns="http://www.w3.org/2000/svg" xmlns:xlink="http://www.w3.org/1999/xlink" x="0px" y="0px"
	 viewBox="0 0 100 100" style="enable-background:new 0 0 100 100;" xml:space="preserve">
<style type="text/css">
	.st0{fill:#FFFFFF;}
	.st1{fill:#FF0000;}
</style>
<g>
	<rect x="36.2" y="34.6" class="st0" width="27.3" height="28.8"/>
	<path class="st1" d="M51.5,72.5l-13.3-0.3c-4.3-0.1-8.7,0.1-12.9-0.8c-6.4-1.3-6.9-7.8-7.4-13.2c-0.7-7.6-0.4-15.4,0.8-22.9
		c0.7-4.2,3.5-6.8,7.7-7c14.4-1,28.9-0.9,43.3-0.4c1.5,0.1,3.1,0.3,4.6,0.5c7.4,1.3,7.6,8.6,8.1,14.8c0.5,6.3,0.3,12.5-0.7,18.7
		c-0.7,5.1-2.1,9.4-8.1,9.8C66.2,72.2,58.9,72.6,51.5,72.5L51.5,72.5z M43.6,59.5c5.6-3.2,11.1-6.4,16.6-9.6
		c-5.6-3.2-11.1-6.4-16.6-9.6C43.6,40.4,43.6,59.5,43.6,59.5z"/>
</g>
</svg>
